<svg xmlns="http://www.w3.org/2000/svg" viewBox="0 0 158.555 22.873">
  <defs>
    <style>
      .cls-1 {
        fill: #fff;
      }
    </style>
  </defs>
  <g id="Group_548" data-name="Group 548" transform="translate(0)">
    <path id="Path_977" data-name="Path 977" class="cls-1" d="M19.243.4A20.978,20.978,0,0,0,9.737,2.647,14.271,14.271,0,0,0,1.786,12.96L0,23.043H19.531A20.568,20.568,0,0,0,28.98,20.8a14.058,14.058,0,0,0,7.893-10.313L38.775.4H19.243ZM30.075,13.248A2.244,2.244,0,0,1,28.75,14.8h0a4.566,4.566,0,0,1-2.3.576H18.379a4.1,4.1,0,0,1-1.844-.4,1.59,1.59,0,0,1-.979-1.728,2.314,2.314,0,0,1,1.671-1.728,5.985,5.985,0,0,1,2.017-.4h8.066a4.1,4.1,0,0,1,1.844.4A1.551,1.551,0,0,1,30.075,13.248ZM31.746,4.2a2.244,2.244,0,0,1-1.325,1.556,4.566,4.566,0,0,1-2.3.576H21.49a10.4,10.4,0,0,0-5.07,1.325,7.748,7.748,0,0,0-3.86,5.473l-1.786,9.91h-8.7L3.86,13.075a11.82,11.82,0,0,1,6.8-8.93,19.211,19.211,0,0,1,8.757-2.074h9.506a4.1,4.1,0,0,1,1.844.4A1.5,1.5,0,0,1,31.746,4.2Z" transform="translate(0 -0.17)"/>
    <path id="Path_978" data-name="Path 978" class="cls-1" d="M76.2,31.159V20.5h6.971v.922H77.237V25.34H82.25V26.2H77.237v4.955Z" transform="translate(-32.298 -8.689)"/>
    <path id="Path_979" data-name="Path 979" class="cls-1" d="M93.16,33.366A3.609,3.609,0,0,1,91.6,33.02a4.614,4.614,0,0,1-1.21-.864,4.288,4.288,0,0,1-.807-1.268,4.344,4.344,0,0,1,0-3.111,3.662,3.662,0,0,1,.807-1.268A3.861,3.861,0,0,1,93.16,25.3a3.8,3.8,0,0,1,1.556.346,2.942,2.942,0,0,1,1.21.864,4.288,4.288,0,0,1,.807,1.268,4.344,4.344,0,0,1,0,3.111,3.662,3.662,0,0,1-.807,1.268,3.861,3.861,0,0,1-2.766,1.21Zm-2.823-4.033a3.009,3.009,0,0,0,.23,1.21,2.6,2.6,0,0,0,.634.979,2.773,2.773,0,0,0,.922.691,2.5,2.5,0,0,0,1.095.23,2.338,2.338,0,0,0,1.095-.23,3.515,3.515,0,0,0,.922-.691,3.566,3.566,0,0,0,.634-.979,3.5,3.5,0,0,0,0-2.42,2.6,2.6,0,0,0-.634-.979,2.773,2.773,0,0,0-.922-.691,2.715,2.715,0,0,0-2.189,0,3.515,3.515,0,0,0-.922.691,3.136,3.136,0,0,0-.634,1.037A2.285,2.285,0,0,0,90.337,29.333Z" transform="translate(-37.85 -10.723)"/>
    <path id="Path_980" data-name="Path 980" class="cls-1" d="M109.618,26.279a3.29,3.29,0,0,0-1.786.576,2.924,2.924,0,0,0-1.095,1.5v4.84H105.7V25.358h.979V27.2a3,3,0,0,1,1.152-1.383,2.652,2.652,0,0,1,1.556-.519h.173Z" transform="translate(-44.801 -10.723)"/>
    <path id="Path_981" data-name="Path 981" class="cls-1" d="M126.481,33.151h-1.037V28.772a3.589,3.589,0,0,0-.461-2.017,1.4,1.4,0,0,0-1.268-.634,2.312,2.312,0,0,0-.864.173,3.266,3.266,0,0,0-.749.461,6.1,6.1,0,0,0-.576.691,4.46,4.46,0,0,0-.4.922v4.782h-.979V28.772a4.09,4.09,0,0,0-.4-2.017,1.458,1.458,0,0,0-1.268-.634,2.226,2.226,0,0,0-1.556.634,3.6,3.6,0,0,0-.979,1.613v4.782H114.9V25.315h.922V27.1a3.663,3.663,0,0,1,1.268-1.383,3.048,3.048,0,0,1,1.728-.519,2.175,2.175,0,0,1,1.556.576,2.9,2.9,0,0,1,.749,1.44,3.38,3.38,0,0,1,3-2.017,2.338,2.338,0,0,1,1.095.23,2.728,2.728,0,0,1,.749.634,3.567,3.567,0,0,1,.4,1.095,5.61,5.61,0,0,1,.115,1.383Z" transform="translate(-48.701 -10.681)"/>
    <path id="Path_982" data-name="Path 982" class="cls-1" d="M140.193,33.318a3.262,3.262,0,0,1-1.037-.173,2.416,2.416,0,0,1-.807-.519A2.5,2.5,0,0,1,137.6,30.9a1.691,1.691,0,0,1,.23-.922,2.157,2.157,0,0,1,.691-.749,2.134,2.134,0,0,1,1.037-.461,4.911,4.911,0,0,1,1.325-.173,8.6,8.6,0,0,1,1.21.115,6.077,6.077,0,0,1,1.095.288v-.749a2.288,2.288,0,0,0-.576-1.671A2.08,2.08,0,0,0,141,26a4.1,4.1,0,0,0-1.21.23,5.421,5.421,0,0,0-1.268.691l-.346-.691a5.5,5.5,0,0,1,2.938-1.037,3.073,3.073,0,0,1,2.3.807,3.121,3.121,0,0,1,.864,2.3V31.82c0,.288.115.4.346.4v.922c-.115,0-.288.058-.4.058a1.162,1.162,0,0,1-.634-.173.626.626,0,0,1-.23-.519l-.058-.634a3.263,3.263,0,0,1-1.383,1.095A5.762,5.762,0,0,1,140.193,33.318Zm.23-.807a4.012,4.012,0,0,0,1.44-.288,2.816,2.816,0,0,0,1.037-.807,1.257,1.257,0,0,0,.23-.288.519.519,0,0,0,.058-.288V29.516a6.965,6.965,0,0,0-1.037-.288,7.059,7.059,0,0,0-1.095-.115,3,3,0,0,0-1.728.461,1.383,1.383,0,0,0-.691,1.152,2.893,2.893,0,0,0,.115.691,2.069,2.069,0,0,0,.4.576,1.2,1.2,0,0,0,.576.346,1.534,1.534,0,0,0,.691.173Z" transform="translate(-58.322 -10.676)"/>
    <path id="Path_983" data-name="Path 983" class="cls-1" d="M155.952,30.925l-.288.115a2.811,2.811,0,0,1-.4.173,1.682,1.682,0,0,1-.519.115,1.96,1.96,0,0,1-.576.058,2.8,2.8,0,0,1-.691-.058,2.335,2.335,0,0,1-.519-.288.9.9,0,0,1-.346-.461,1.241,1.241,0,0,1-.115-.634V24.357H151.4V23.55h1.095V20.9h1.037v2.65h1.786v.807h-1.786V29.6a.925.925,0,0,0,.288.634.825.825,0,0,0,.634.173,1.961,1.961,0,0,0,.807-.115,2.809,2.809,0,0,0,.4-.173Z" transform="translate(-64.171 -8.859)"/>
    <path id="Path_984" data-name="Path 984" class="cls-1" d="M161.5,21.5V20h1.037v1.5Zm0,9.449V23.111h1.037v7.836Z" transform="translate(-68.452 -8.477)"/>
    <path id="Path_985" data-name="Path 985" class="cls-1" d="M170.06,33.281a3.609,3.609,0,0,1-1.556-.346,3.759,3.759,0,0,1-1.21-.922,4.288,4.288,0,0,1-.807-1.268,4.344,4.344,0,0,1,0-3.111,4.549,4.549,0,0,1,.807-1.325,3.861,3.861,0,0,1,2.766-1.21,3.8,3.8,0,0,1,1.556.346,4.928,4.928,0,0,1,1.268.864,4.288,4.288,0,0,1,.807,1.268,4.344,4.344,0,0,1,0,3.111,3.662,3.662,0,0,1-.807,1.268,3.588,3.588,0,0,1-1.21.864A2.759,2.759,0,0,1,170.06,33.281Zm-2.823-4.033a3.009,3.009,0,0,0,.23,1.21,2.6,2.6,0,0,0,.634.979,2.773,2.773,0,0,0,.922.691,2.5,2.5,0,0,0,1.095.23,2.338,2.338,0,0,0,1.095-.23,3.514,3.514,0,0,0,.922-.691,3.566,3.566,0,0,0,.634-.979,3.5,3.5,0,0,0,0-2.42,2.6,2.6,0,0,0-.634-.979,2.773,2.773,0,0,0-.922-.691,2.715,2.715,0,0,0-2.189,0,3.514,3.514,0,0,0-.922.691,3.136,3.136,0,0,0-.634,1.037A2.285,2.285,0,0,0,167.237,29.248Z" transform="translate(-70.444 -10.639)"/>
    <path id="Path_986" data-name="Path 986" class="cls-1" d="M189.126,33.151h-1.037V28.772a4.09,4.09,0,0,0-.4-2.017,1.53,1.53,0,0,0-1.268-.634,2.609,2.609,0,0,0-.922.173,3.673,3.673,0,0,0-.807.461l-.691.691a4.594,4.594,0,0,0-.461.922v4.782H182.5V25.315h.922V27.1a3.972,3.972,0,0,1,1.383-1.383,3.832,3.832,0,0,1,1.959-.519,2.338,2.338,0,0,1,1.095.23,1.986,1.986,0,0,1,.691.691,3.566,3.566,0,0,1,.4,1.095,11.185,11.185,0,0,1,.115,1.383Z" transform="translate(-77.353 -10.681)"/>
    <path id="Path_987" data-name="Path 987" class="cls-1" d="M214.191,31.159V22.4l-3.86,6.741H209.7l-3.86-6.741v8.757H204.8V20.5h1.095l4.148,7.259,4.206-7.259h1.095V31.159Z" transform="translate(-86.805 -8.689)"/>
    <path id="Path_988" data-name="Path 988" class="cls-1" d="M230.06,33.361a3.609,3.609,0,0,1-1.556-.346,4.614,4.614,0,0,1-1.21-.864,4.288,4.288,0,0,1-.807-1.268,4.344,4.344,0,0,1,0-3.111,3.662,3.662,0,0,1,.807-1.268,3.588,3.588,0,0,1,1.21-.864,3.7,3.7,0,0,1,4.321.864,4.222,4.222,0,0,1,1.095,2.823v.4h-6.683a2.622,2.622,0,0,0,.288,1.152,3.292,3.292,0,0,0,.634.922,3.356,3.356,0,0,0,.864.634,2.338,2.338,0,0,0,1.095.23,3.372,3.372,0,0,0,.749-.115,3.525,3.525,0,0,0,.691-.288,2.256,2.256,0,0,0,.576-.461,2.069,2.069,0,0,0,.4-.576l.864.23a2.417,2.417,0,0,1-.519.807,2.376,2.376,0,0,1-.749.576,4.984,4.984,0,0,1-.979.4A7.06,7.06,0,0,1,230.06,33.361Zm2.881-4.494a3,3,0,0,0-.922-2.017,2.837,2.837,0,0,0-.864-.576,3.369,3.369,0,0,0-1.095-.23,2.5,2.5,0,0,0-1.095.23,3.1,3.1,0,0,0-.922.576,2.632,2.632,0,0,0-.634.922,3.762,3.762,0,0,0-.288,1.152Z" transform="translate(-95.876 -10.719)"/>
    <path id="Path_989" data-name="Path 989" class="cls-1" d="M245.045,31.12a3.362,3.362,0,0,1-1.5-.346,4.614,4.614,0,0,1-1.21-.864,4.088,4.088,0,0,1-.749-1.268,4.327,4.327,0,0,1-.288-1.5,4.939,4.939,0,0,1,.288-1.556,4.35,4.35,0,0,1,.749-1.325,3.373,3.373,0,0,1,1.152-.864,3.123,3.123,0,0,1,1.44-.346,3.048,3.048,0,0,1,1.728.519,4.234,4.234,0,0,1,1.21,1.268V20h1.037v9.622c0,.288.115.4.346.4v.922c-.115,0-.23.058-.346.058a.866.866,0,0,1-.634-.23.709.709,0,0,1-.288-.576v-.749a3.2,3.2,0,0,1-1.268,1.21A3.15,3.15,0,0,1,245.045,31.12Zm.23-.922a2.033,2.033,0,0,0,.807-.173,3.52,3.52,0,0,0,.807-.4,3.3,3.3,0,0,0,.634-.634,1.786,1.786,0,0,0,.346-.749v-2.42a2.032,2.032,0,0,0-.461-.749,3.3,3.3,0,0,0-.634-.634,2.128,2.128,0,0,0-.807-.4,2.228,2.228,0,0,0-1.959.115,2.551,2.551,0,0,0-.864.691,3.021,3.021,0,0,0-.576,1.037,3.715,3.715,0,0,0-.173,1.152,3.092,3.092,0,0,0,.864,2.189,3.515,3.515,0,0,0,.922.691,2.207,2.207,0,0,0,1.095.288Z" transform="translate(-102.276 -8.477)"/>
    <path id="Path_990" data-name="Path 990" class="cls-1" d="M258.5,21.5V20h1.037v1.5Zm0,9.449V23.111h1.037v7.836Z" transform="translate(-109.566 -8.477)"/>
    <path id="Path_991" data-name="Path 991" class="cls-1" d="M265.593,33.318a3.262,3.262,0,0,1-1.037-.173,2.417,2.417,0,0,1-.807-.519A2.5,2.5,0,0,1,263,30.9a1.691,1.691,0,0,1,.23-.922,2.158,2.158,0,0,1,.691-.749,2.134,2.134,0,0,1,1.037-.461,4.911,4.911,0,0,1,1.325-.173,8.6,8.6,0,0,1,1.21.115,6.076,6.076,0,0,1,1.095.288v-.749a2.288,2.288,0,0,0-.576-1.671A2.079,2.079,0,0,0,266.4,26a4.1,4.1,0,0,0-1.21.23,5.423,5.423,0,0,0-1.268.691l-.346-.691a5.5,5.5,0,0,1,2.938-1.037,3.073,3.073,0,0,1,2.3.807,3.121,3.121,0,0,1,.864,2.3V31.82c0,.288.115.4.346.4v.922c-.115,0-.288.058-.4.058a.86.86,0,0,1-.576-.173.626.626,0,0,1-.23-.519v-.634a3.263,3.263,0,0,1-1.383,1.095A6.532,6.532,0,0,1,265.593,33.318Zm.288-.807a4.011,4.011,0,0,0,1.44-.288,2.816,2.816,0,0,0,1.037-.807,1.257,1.257,0,0,0,.23-.288.519.519,0,0,0,.058-.288V29.516a6.968,6.968,0,0,0-1.037-.288,7.059,7.059,0,0,0-1.095-.115,3,3,0,0,0-1.728.461,1.383,1.383,0,0,0-.691,1.152,2.892,2.892,0,0,0,.115.691,2.07,2.07,0,0,0,.4.576,1.2,1.2,0,0,0,.576.346,1.229,1.229,0,0,0,.691.173Z" transform="translate(-111.473 -10.676)"/>
    <g id="Group_547" data-name="Group 547" transform="translate(43.73)">
      <path id="Path_992" data-name="Path 992" class="cls-1" d="M75.9,8.985V.4h3.572a2.26,2.26,0,0,1,1.037.23,2.2,2.2,0,0,1,.807.634,2.169,2.169,0,0,1,.519.864,2.926,2.926,0,0,1,.173.979,3.262,3.262,0,0,1-.173,1.037,2.169,2.169,0,0,1-.519.864,1.872,1.872,0,0,1-.749.576,2.752,2.752,0,0,1-1.037.23H76.764V8.985Zm.864-3.918H79.53a1.534,1.534,0,0,0,.691-.173,1.017,1.017,0,0,0,.519-.461,2.236,2.236,0,0,0,.346-.634,2.149,2.149,0,0,0,.115-.691,2.919,2.919,0,0,0-.115-.749,2.379,2.379,0,0,0-.4-.634,2.069,2.069,0,0,0-.576-.4,1.534,1.534,0,0,0-.691-.173h-2.65V5.067Z" transform="translate(-75.9 -0.17)"/>
      <path id="Path_993" data-name="Path 993" class="cls-1" d="M90.911,10.71a3.14,3.14,0,0,1-1.268-.288,3.013,3.013,0,0,1-.979-.691,2.411,2.411,0,0,1-.634-1.037,4.5,4.5,0,0,1-.23-1.268,3.1,3.1,0,0,1,.23-1.268,4.52,4.52,0,0,1,.634-1.037,4.1,4.1,0,0,1,.979-.634,2.933,2.933,0,0,1,2.535,0,3.785,3.785,0,0,1,.979.691,2.411,2.411,0,0,1,.634,1.037,3.1,3.1,0,0,1,.23,1.268,3.1,3.1,0,0,1-.23,1.268,3.136,3.136,0,0,1-.634,1.037,3.785,3.785,0,0,1-.979.691A3.1,3.1,0,0,1,90.911,10.71Zm-2.3-3.226a2.691,2.691,0,0,0,.173.979,2.417,2.417,0,0,0,.519.807,2.192,2.192,0,0,0,.749.519,2.312,2.312,0,0,0,.864.173,2.1,2.1,0,0,0,.864-.173,2.192,2.192,0,0,0,.749-.519,2.417,2.417,0,0,0,.519-.807,2.862,2.862,0,0,0,0-1.959,2.417,2.417,0,0,0-.519-.807,2.192,2.192,0,0,0-.749-.519,2.312,2.312,0,0,0-.864-.173,2.1,2.1,0,0,0-.864.173,1.758,1.758,0,0,0-.749.576,3.173,3.173,0,0,0-.519.807A2.388,2.388,0,0,0,88.607,7.484Z" transform="translate(-80.944 -1.78)"/>
      <path id="Path_994" data-name="Path 994" class="cls-1" d="M108,4.4h.807L106.1,10.68h-.691l-1.383-3.226L102.7,10.68h-.691L99.3,4.4h.807l2.3,5.473,1.21-2.881L102.526,4.4h.691l.807,2.074.807-2.074h.691l-1.095,2.593,1.21,2.881Z" transform="translate(-85.818 -1.865)"/>
      <path id="Path_995" data-name="Path 995" class="cls-1" d="M119.711,10.668a3.14,3.14,0,0,1-1.268-.288,3.013,3.013,0,0,1-.979-.691,2.411,2.411,0,0,1-.634-1.037,4.5,4.5,0,0,1-.23-1.268,3.1,3.1,0,0,1,.23-1.268,4.52,4.52,0,0,1,.634-1.037,3.785,3.785,0,0,1,.979-.691,2.933,2.933,0,0,1,2.535,0,3.013,3.013,0,0,1,.979.691,3.136,3.136,0,0,1,.634,1.037,3.009,3.009,0,0,1,.23,1.21v.288h-5.416a2.415,2.415,0,0,0,.23.922,2.192,2.192,0,0,0,.519.749,5.405,5.405,0,0,0,.691.519,2.312,2.312,0,0,0,.864.173,2.363,2.363,0,0,0,.634-.058,2.408,2.408,0,0,0,.576-.23,3.2,3.2,0,0,0,.461-.346,1.255,1.255,0,0,0,.288-.461l.691.173a2.379,2.379,0,0,1-.4.634,6.123,6.123,0,0,1-.634.519c-.23.115-.519.23-.749.346A2.239,2.239,0,0,1,119.711,10.668Zm2.3-3.572a2.415,2.415,0,0,0-.23-.922,1.573,1.573,0,0,0-.519-.691,4.806,4.806,0,0,0-.691-.461,2.247,2.247,0,0,0-1.728,0,2.072,2.072,0,0,0-.691.461,4.2,4.2,0,0,0-.519.749,4.316,4.316,0,0,0-.23.922h4.609Z" transform="translate(-93.151 -1.738)"/>
      <path id="Path_996" data-name="Path 996" class="cls-1" d="M132.811,5.049a2.389,2.389,0,0,0-1.44.461,2.351,2.351,0,0,0-.864,1.21v3.918H129.7V4.358h.749v1.5a3.7,3.7,0,0,1,.922-1.152,2.074,2.074,0,0,1,1.268-.4h.173v.749Z" transform="translate(-98.703 -1.823)"/>
      <path id="Path_997" data-name="Path 997" class="cls-1" d="M138.911,10.668a3.14,3.14,0,0,1-1.268-.288,3.013,3.013,0,0,1-.979-.691,2.411,2.411,0,0,1-.634-1.037,4.494,4.494,0,0,1-.23-1.268,3.1,3.1,0,0,1,.23-1.268,4.519,4.519,0,0,1,.634-1.037,3.785,3.785,0,0,1,.979-.691,2.933,2.933,0,0,1,2.535,0,3.012,3.012,0,0,1,.979.691,3.136,3.136,0,0,1,.634,1.037,3.009,3.009,0,0,1,.23,1.21v.288h-5.416a2.416,2.416,0,0,0,.23.922,2.192,2.192,0,0,0,.519.749,5.4,5.4,0,0,0,.691.519,2.312,2.312,0,0,0,.864.173,1.96,1.96,0,0,0,.576-.058,2.408,2.408,0,0,0,.576-.23,3.2,3.2,0,0,0,.461-.346,1.254,1.254,0,0,0,.288-.461l.691.173a2.379,2.379,0,0,1-.4.634,6.124,6.124,0,0,1-.634.519c-.23.115-.519.23-.749.346A1.831,1.831,0,0,1,138.911,10.668Zm2.3-3.572a2.416,2.416,0,0,0-.23-.922,1.573,1.573,0,0,0-.519-.691,2.411,2.411,0,0,0-.691-.461,2.247,2.247,0,0,0-1.728,0,2.072,2.072,0,0,0-.691.461,3.465,3.465,0,0,0-.519.749,4.317,4.317,0,0,0-.23.922h4.609Z" transform="translate(-101.289 -1.738)"/>
      <path id="Path_998" data-name="Path 998" class="cls-1" d="M150.954,8.93a2.678,2.678,0,0,1-1.21-.288,3.785,3.785,0,0,1-.979-.691,3.137,3.137,0,0,1-.634-1.037,3.009,3.009,0,0,1-.23-1.21,3.1,3.1,0,0,1,.23-1.268,4.424,4.424,0,0,1,.576-1.037,2.773,2.773,0,0,1,.922-.691,2.621,2.621,0,0,1,2.593.115A3.349,3.349,0,0,1,153.2,3.86V0h.807V7.778c0,.23.115.346.288.346v.749a2.5,2.5,0,0,0-.288.058.929.929,0,0,1-.519-.173.524.524,0,0,1-.23-.461V7.663a2.441,2.441,0,0,1-1.037.979A2.546,2.546,0,0,1,150.954,8.93Zm.23-.691a2.973,2.973,0,0,0,.634-.115,1.373,1.373,0,0,0,.634-.346,4.4,4.4,0,0,0,.519-.519,2.13,2.13,0,0,0,.288-.634v-1.9a1.731,1.731,0,0,0-.346-.634l-.519-.519a2.236,2.236,0,0,0-.634-.346,2.892,2.892,0,0,0-.691-.115,1.691,1.691,0,0,0-.922.23,2.305,2.305,0,0,0-.691.576,3.673,3.673,0,0,0-.461.807,2.609,2.609,0,0,0-.173.922,2.926,2.926,0,0,0,.173.979,1.953,1.953,0,0,0,.519.807,3.7,3.7,0,0,0,.749.576A1.691,1.691,0,0,0,151.184,8.239Z" transform="translate(-106.417)"/>
      <path id="Path_999" data-name="Path 999" class="cls-1" d="M170.211,8.93a2.3,2.3,0,0,1-1.383-.4,2.662,2.662,0,0,1-.979-.979v1.21H167.1V0h.807V3.86a4.431,4.431,0,0,1,1.037-1.037,2.3,2.3,0,0,1,1.383-.4,2.678,2.678,0,0,1,1.21.288,3.762,3.762,0,0,1,.922.749,3.021,3.021,0,0,1,.576,1.037,4.386,4.386,0,0,1,.173,1.21,3.1,3.1,0,0,1-.23,1.268,3.137,3.137,0,0,1-.634,1.037,3.515,3.515,0,0,1-.922.691A2.834,2.834,0,0,1,170.211,8.93Zm-.173-.691a1.571,1.571,0,0,0,.922-.23,2.376,2.376,0,0,0,.749-.576,2.26,2.26,0,0,0,.461-.807,2.609,2.609,0,0,0,.173-.922,2.926,2.926,0,0,0-.173-.979,3.672,3.672,0,0,0-.461-.807,3.343,3.343,0,0,0-.691-.576,2.416,2.416,0,0,0-.922-.23,2.892,2.892,0,0,0-.691.115,1.2,1.2,0,0,0-.576.346,4.4,4.4,0,0,0-.519.519,1.535,1.535,0,0,0-.346.576V6.626a1.556,1.556,0,0,0,.288.634,2.2,2.2,0,0,0,.519.519,6.284,6.284,0,0,0,.634.346A2.071,2.071,0,0,0,170.038,8.239Z" transform="translate(-114.555)"/>
      <path id="Path_1000" data-name="Path 1000" class="cls-1" d="M179.552,12.639h.346c.173,0,.288,0,.346-.058a.623.623,0,0,0,.23-.288l.288-.576c.115-.23.23-.634.4-1.037L178.4,4.4h.864l2.362,5.531L183.816,4.4h.807l-3.284,8.124a1.634,1.634,0,0,1-.461.634,1.3,1.3,0,0,1-.864.288h-.23a.626.626,0,0,1-.288-.058v-.749Z" transform="translate(-119.345 -1.865)"/>
    </g>
  </g>
</svg>
