<?xml version="1.0" encoding="utf-8"?>
<!-- Generator: Adobe Illustrator 23.0.0, SVG Export Plug-In . SVG Version: 6.00 Build 0)  -->
<svg version="1.1" id="Layer_1" xmlns="http://www.w3.org/2000/svg" xmlns:xlink="http://www.w3.org/1999/xlink" x="0px" y="0px"
	 viewBox="0 0 1006.36 205.01" style="enable-background:new 0 0 1006.36 205.01;" xml:space="preserve">
<style type="text/css">
	.st0{fill:#FFFFFF;}
</style>
<g>
	<path class="st0" d="M812.59,103.19c6.52-2.82,12.77-4.75,19.69-3.27c6.15,1.32,10.82,6.32,11.11,11.92
		c0.27,5.32-3.22,9.63-10.14,11.15c-5.29,1.16-10.8,1.29-16.17,1.88c1.63,4.6,8.34,7.81,14.08,6.57c1.46-0.32,2.94-1.33,4.3-1.16
		c2.52,0.33,6.41,0.63,7.12,2.16c1.57,3.39,0.04,7.09-3.81,8.52c-8.47,3.17-16.46,1.17-23.78-3.46c-3.89-2.46-7.26-5.74-11.37-9.07
		c-0.97,1.61-1.67,3.04-2.61,4.28c-1.69,2.24-3.23,4.75-5.38,6.46c-3.4,2.72-7.97,3.32-11.1,0.56c-1.98-1.74-2.37-5.8-2.56-8.87
		c-0.14-2.33,1.17-4.75,2.02-7.82c-6.45,4.42-12.32,8.55-18.3,12.49c-2.2,1.45-4.61,2.69-7.08,3.62
		c-5.86,2.21-11.69,1.51-15.39-3.56c-3.64-4.99-6.71-10.67-8.73-16.51c-3.97-11.45-4.61-11.74-13.02-3.3
		c-5.39,5.41-11.16,10.45-16.95,15.44c-1.71,1.48-3.94,2.54-6.11,3.29c-6.37,2.23-10.98-0.73-11.6-7.42
		c-0.26-2.76-0.04-5.56-0.04-8.89c-4.37,5.34-8.1,10.31-12.27,14.87c-4.47,4.88-10.15,7.42-16.94,7.07
		c-9.09-0.47-12.96-4.58-14.87-15.71c-2.81,2.59-5.78,5.28-8.71,8.02c-5.59,5.24-11.82,9.24-19.66,9.99
		c-9.31,0.9-15.2-4.55-14.57-13.88c0.68-10.1,5.47-18.24,13.83-23.73c5.19-3.41,11-6.04,16.83-8.23c2.35-0.88,5.93-0.46,8.19,0.76
		c4.32,2.35,8.02,5.76,13.55,5.13c0.4-0.05,1.88,3.7,1.72,5.59c-0.33,3.94-2.21,7.88-1.94,11.7c0.22,3.07,1.98,6.88,4.33,8.73
		c3.22,2.54,7.65,1.52,10.48-1.49c2.92-3.1,5.06-6.93,7.55-10.43c2.4-3.37,4.57-6.95,7.31-10.02c3.33-3.72,7.74-4.43,12.37-2.59
		c4.54,1.8,4.9,5.88,5.07,9.98c0.05,1.31,0.01,2.62,0.01,4.93c5.54-4.5,10.47-8.51,15.4-12.52c14.93-12.13,22.83-10.14,29.93,7.55
		c6.28,15.65,10.95,16.89,25.15,7.95c14.78-9.32,24.8-22.03,31.57-38.12c4.61-10.97,11.13-21.15,17.1-31.51
		c1.63-2.82,4.25-5.12,6.61-7.46c4.35-4.29,9.63-5.01,14.06-2.14c3.63,2.36,4.87,7.6,2.77,13.1c-5.75,15.07-14.31,28.52-24.07,41.25
		C815.95,99.13,814.25,101.14,812.59,103.19z M636.74,112.81c0.06-5.21-3.65-7.8-8.33-6.31c-8.52,2.7-13.83,8.98-17.15,16.86
		c-0.85,2.01-0.57,5.77,0.78,7.07c1.38,1.32,5.58,1.7,7.04,0.56c5.79-4.49,11.07-9.68,16.36-14.79
		C636.39,115.28,636.5,113.49,636.74,112.81z M811.12,88.23c8.2-9.65,14.99-20.14,20.75-31.96
		C823.88,55.97,808.32,79.96,811.12,88.23z M827.93,106.66c-3.91,1.69-7.43,2.97-10.67,4.77c-0.94,0.53-1.56,2.63-1.37,3.86
		c0.13,0.83,1.97,1.96,3.03,1.95c3.45-0.03,7.12,0.09,10.27-1.04c2.16-0.78,3.61-3.54,5.37-5.42
		C832.51,109.5,830.45,108.22,827.93,106.66z"/>
	<path class="st0" d="M170.31,117.51c6.19-5.18,11.19-9.56,16.42-13.66c2.59-2.03,5.39-4.13,8.44-5.16
		c8.12-2.74,14.26-1.84,18.02,6.99c2.15,5.04,4.66,9.95,7.27,14.77c4.4,8.13,8.69,8.64,15.76,2.95c11.65-9.37,23.17-18.99,35.5-27.4
		c11.08-7.57,17.15-3.86,17.83,9.64c0.13,2.63,0.02,5.27,0.02,8.11c6.89,1.26,12.85-0.46,18.35-3.78c4.84-2.93,9.42-6.27,14.09-9.47
		c4.44-3.04,9.25-4.45,14.64-3.55c6.04,1.01,11.11,6.74,11.28,12.81c0.34,11.74-10.58,28.03-21.76,31.53
		c-3.46,1.08-7.64,1.22-11.18,0.4c-8.93-2.05-12.41-8.48-10.18-17.38c0.32-1.28,0.81-2.51,1.3-3.98c-2.95,0.78-5.7,1.79-8.54,2.16
		c-2.75,0.37-5.58,0.08-8.84,0.08c-0.91,10.34-5.78,18.17-16.44,21.62c-7.13,2.31-15.1,0.53-17.67-4.12
		c-2.6-4.71-0.3-11.63,6.21-16.3c3.44-2.46,7.6-3.96,11.54-5.66c3.91-1.68,7.87-3.33,8.63-8.09c0.26-1.61-0.19-3.81-1.2-4.96
		c-0.57-0.65-3.35-0.24-4.44,0.6c-8.15,6.3-16.15,12.8-24.14,19.31c-5.29,4.3-10.24,9.07-15.79,13c-7.07,5.01-15.33,4.41-20.58-2.4
		c-4.48-5.8-7.64-12.75-10.64-19.53c-2.88-6.5-4.54-7.3-9.93-2.53c-6.23,5.52-12.29,11.22-18.47,16.8c-1.23,1.11-2.56,2.16-4,2.95
		c-7.73,4.25-13.54,1.02-14.1-7.77c-0.07-1.15-0.01-2.32-0.01-4.59c-5.82,4.21-10.93,7.96-16.1,11.63
		c-2.84,2.02-5.67,4.11-8.68,5.86c-9.91,5.77-20.63,2.58-25.6-7.78c-1.49-3.1-3.01-5.12-6.73-5.62c-1.53-0.21-3.94-2.64-3.87-3.95
		c0.1-1.84,1.92-4.83,3.4-5.1c4.36-0.78,4.77-3.62,5.59-7.01c3.33-13.7,11.72-23.04,25.28-27.1c10.57-3.17,17.51,3.62,15.21,14.43
		c-2.12,9.95-9.49,15.28-17.75,19.7c-2.33,1.25-5.25,1.62-7.25,3.22c-1.7,1.37-3.54,4.02-3.34,5.9c0.19,1.8,2.87,4.62,4.56,4.7
		c3.19,0.15,7.2-0.42,9.56-2.32c8.29-6.67,16.02-14.03,23.98-21.1c1.12-0.99,2.3-2.42,3.6-2.59c3.42-0.45,7.4-1.4,10.28-0.15
		c3.73,1.62,2.96,5.82,1.81,9.33C171.3,114.04,171.01,115.14,170.31,117.51z M318.38,131.78c6.65,0.05,15.83-7.74,18.02-14.59
		c0.7-2.19,0.51-5.69-0.84-7.24c-1.34-1.54-4.76-2.18-7.05-1.82c-5.95,0.92-14.66,12.51-13.73,18.35
		C315.15,128.69,317.51,130.56,318.38,131.78z M136.89,96.31c-0.45-4.93-2.97-5.94-5.4-4.73c-3.63,1.81-7.5,4-9.97,7.07
		c-2.27,2.82-2.82,7.03-4.13,10.62c4.96,2.18,8.33-1.25,11.44-3.87C132.15,102.63,134.67,98.89,136.89,96.31z M263.89,135.98
		c5.26,1.43,12.14-3.31,13.57-9.37C271.42,125.33,265.36,129.51,263.89,135.98z"/>
	<path class="st0" d="M83.52,87.08c-15.94,3.93-30.98,7.54-45.94,11.48c-1.65,0.43-3.45,2.49-4.09,4.21
		c-7.03,18.68-13.77,37.47-20.82,56.14c-0.85,2.26-2.7,5.05-4.73,5.77c-5.1,1.8-9.29-2.71-7.53-7.9
		c5.52-16.22,11.28-32.36,16.94-48.53c0.48-1.38,0.97-2.77,1.7-4.87c-3.34,0.67-6.03,1.25-8.74,1.74c-3.68,0.66-6.8,0-7.69-4.24
		C1.77,96.8,3.49,94.07,7.56,93c4.18-1.11,8.35-2.31,12.6-3.12c3.49-0.67,5.27-2.49,6.53-5.82c8.5-22.39,17.2-44.71,25.88-67.04
		c1.57-4.03,3.27-8.01,4.99-11.98c2.09-4.82,4.76-6.05,8.95-4.25c3.96,1.7,5.04,4.64,3.1,9.57c-5.71,14.56-11.57,29.06-17.29,43.61
		c-3.95,10.02-7.77,20.1-11.95,30.92c6.61-1.56,12.51-3.1,18.47-4.33c8.47-1.74,16.97-3.36,25.5-4.8c2.69-0.45,4.3-1.28,5.48-4.04
		c5.83-13.6,11.92-27.1,18.05-40.57c2.27-4.99,4.87-6.09,8.97-4.34c4.13,1.76,5.13,4.79,2.89,9.98
		c-4.48,10.39-8.83,20.84-13.75,31.02c-12.34,25.51-21.01,52.12-25.18,80.16c-0.55,3.7-1.67,6.5-6.17,6.08
		c-4.55-0.42-4.97-3.44-4.86-7.14c0.59-18.91,6.42-36.64,11.99-54.44C82.25,90.93,82.77,89.39,83.52,87.08z"/>
	<path class="st0" d="M880.05,125.07c-3.48,3.99-6.04,7.3-8.99,10.22c-5.27,5.21-12.47,6.53-17.81,3.61
		c-5.08-2.78-8.18-8.95-6.08-16.08c3.34-11.28,7.62-22.31,11.95-33.26c5.26-13.3,10.98-26.41,16.56-39.58
		c0.57-1.35,1.24-3.25,2.34-3.67c2.24-0.87,5.05-1.69,7.12-1c1.21,0.4,2.34,3.95,1.94,5.73c-1,4.51-2.59,8.95-4.45,13.2
		c-6.55,14.92-13.37,29.72-19.98,44.62c-1.62,3.64-3.24,7.37-4.07,11.22c-0.44,2.02,0.83,4.4,1.33,6.62
		c2.16-0.87,4.83-1.21,6.38-2.7c3.46-3.33,6.13-7.49,9.57-10.84c3.43-3.34,7.24-6.37,11.21-9.04c2.71-1.82,5.96-2.3,8.67,0.54
		c2.69,2.81,1.34,5.41-0.34,8.1c-1.49,2.39-3.03,4.82-4.05,7.43c-2.1,5.4-0.05,8.8,5.63,9.64c7.31,1.07,13.59-1.42,18.61-6.53
		c3.35-3.41,6.15-7.41,8.94-11.33c2.07-2.92,4.4-4.45,8.01-3.2c3.55,1.23,3.78,4.25,3.07,6.99c-1.24,4.8-2.51,9.74-4.79,14.09
		c-11.37,21.69-18.26,44.94-24.66,68.39c-1.4,5.14-4.04,7.45-7.73,6.58c-3.53-0.82-5.21-4.25-3.52-9.51
		c4.74-14.71,9.88-29.3,14.87-43.93c0.97-2.83,2.03-5.63,2.95-8.48c1.19-3.68-0.53-4.57-3.81-3.76c-1.45,0.36-2.87,0.86-4.32,1.22
		C890.09,144.07,884.77,141.08,880.05,125.07z"/>
	<path class="st0" d="M496.08,98.4c-12.59,2.41-24.33,4.66-36.07,6.9c-3.48,0.66-7.32,1.78-8.38-3.29c-1-4.79,2.21-6.54,6.16-7.39
		c13.02-2.81,26.01-5.76,39.09-8.24c3.65-0.69,5.24-2.18,6.51-5.58c3.9-10.44,8.29-20.69,12.46-31.03c1.59-3.94,4.23-6.23,8.52-4.47
		c4.33,1.77,3.76,5.31,2.38,8.87c-2.9,7.44-5.79,14.89-8.67,22.33c-0.57,1.48-1.07,2.99-1.82,5.11c10.45-2.16,20.15-4.24,29.9-6.15
		c3.26-0.64,6.65-1.31,9.9-1.04c2.03,0.17,4.8,1.64,5.67,3.34c1.53,2.97-0.29,5.7-3.41,6.58c-6.23,1.76-12.56,3.21-18.88,4.62
		c-7.96,1.78-15.92,3.6-23.95,5.01c-3.86,0.68-5.68,2.7-6.73,6.23c-4.68,15.79-9.59,31.52-14.18,47.34
		c-2.33,8.04-5.12,10.83-10.25,9.21c-4.41-1.39-5.36-5.39-2.96-12.83C486.15,129.08,490.97,114.23,496.08,98.4z"/>
	<path class="st0" d="M561.38,18.91c-24.85,3.15-52.87,6.42-76.86,23.21c-4.31,3.02-7.92,7.03-11.87,10.56
		c-1.48,1.33-2.91,2.74-4.52,3.9c-2.87,2.06-5.85,2.39-8.62-0.23c-2.88-2.73-2.51-6.18-0.27-8.54c4.89-5.16,9.79-10.67,15.7-14.44
		c27.72-17.67,58.43-26.18,91.11-27.19c6.89-0.21,14.11,1.81,20.75,4.08c5.9,2.02,7.85,7.02,6.24,13c-1.34,4.95-3.29,9.75-5.2,14.52
		c-0.59,1.47-1.75,3.5-2.99,3.78c-3.34,0.77-6.87,0.74-10.32,1.02c0.1-2.96-0.74-6.38,0.45-8.79
		C581.1,21.39,579.15,18.39,561.38,18.91z"/>
	<path class="st0" d="M548.7,124.45c8.07-7.12,15.77-14.75,24.37-21.17c4.87-3.63,11.03-5.98,16.96-7.62
		c5.34-1.47,9.76,1.97,10.6,6.57c0.92,5.07-3.27,8.52-8.3,7.31c-2.12-0.51-5.08-0.46-6.77,0.67c-4.52,3.04-8.68,6.68-12.77,10.3
		c-7.97,7.05-15.67,14.41-23.75,21.32c-3,2.56-6.7,4.78-10.95,2.12c-4.31-2.7-3.92-6.95-3.45-11.17c0.28-2.48,0.74-4.95,0.84-7.44
		c0.04-1.03-0.35-2.57-1.07-3c-0.68-0.41-2.24,0.06-3.07,0.64c-2.26,1.6-4.77,4.74-7.17,1.74c-1.79-2.25-2.68-6.18-2.22-9.08
		c1.15-7.2,14.53-14.94,21.72-13.22c4.45,1.07,7.01,5.17,6.64,10.9c-0.12,1.82-0.49,3.63-0.91,5.41c-0.41,1.73-1.04,3.41-1.58,5.12
		C548.13,124.06,548.42,124.26,548.7,124.45z"/>
	<path class="st0" d="M369.19,106.48c10.23-2.77,13.96-1.09,19.53,8.33c2.96,5,6.27,9.78,9.43,14.65c2.76,4.25,6.8,5.6,11.64,5.1
		c0.99-0.1,1.98-0.31,2.97-0.34c2.97-0.08,6.35,0.29,6.41,3.8c0.03,1.63-2.58,4.09-4.52,4.85c-11.54,4.53-21.69,0.98-28.33-9.57
		c-2.48-3.93-4.77-7.99-7.27-11.9c-3.24-5.09-8.2-5.3-11.58-0.31c-3.44,5.09-6.3,10.58-9.86,15.57c-1.39,1.95-3.86,3.82-6.14,4.3
		c-4.51,0.94-7.68-2.63-6.09-6.94c3.56-9.65,7.29-19.27,11.66-28.57C359.99,99.17,365.23,99.84,369.19,106.48z"/>
	<path class="st0" d="M960.93,112.85c9.53-1.36,12.85,0.6,17.34,10.34c2.29,4.98,5.15,9.7,7.44,14.68
		c2.41,5.23,6.46,7.22,11.97,7.29c3.5,0.04,8.36-0.91,8.66,4.21c0.3,5.16-4.8,4.69-8.18,5.24c-10.22,1.65-18.57-2.75-23.38-12.07
		c-2.29-4.43-4.4-8.96-6.73-13.38c-3.19-6.08-7.48-6.42-11.86-0.95c-3.54,4.42-6.92,8.96-10.45,13.39c-1.02,1.28-2.2,3.1-3.53,3.33
		c-2.38,0.41-5.52,0.6-7.22-0.64c-1.35-0.99-2.07-4.76-1.28-6.45c4.32-9.16,8.99-18.19,14.07-26.95c1.05-1.81,4.45-3.31,6.6-3.11
		C956.4,107.95,958.19,110.58,960.93,112.85z"/>
</g>
</svg>
